<svg xmlns="http://www.w3.org/2000/svg" width="820" height="500" viewBox="0 0 820 500" role="img" aria-labelledby="plot-title plot-description">
<title id="plot-title">Dual-sourcing inventory learning curves</title>
<desc id="plot-description">Held-out mean inventory cost per period against actual training timesteps for PPO and DQN. Lower is better. Shaded bands show plus or minus one standard deviation across training seeds, and the green dashed line is an adapted TBS reference.</desc>
<rect x="0" y="0" width="820" height="500" fill="#ffffff"/>
<text x="92" y="25" font-family="Arial" font-size="17" font-weight="bold">Dual-sourcing inventory learning curves</text>
<line x1="92" y1="370.0" x2="786" y2="370.0" stroke="#e5e7eb" stroke-width="1"/>
<text x="83" y="374.0" font-family="Arial" text-anchor="end" font-size="12">15</text>
<line x1="92" y1="288.5" x2="786" y2="288.5" stroke="#e5e7eb" stroke-width="1"/>
<text x="83" y="292.5" font-family="Arial" text-anchor="end" font-size="12">77</text>
<line x1="92" y1="207.0" x2="786" y2="207.0" stroke="#e5e7eb" stroke-width="1"/>
<text x="83" y="211.00000000000003" font-family="Arial" text-anchor="end" font-size="12">403</text>
<line x1="92" y1="125.5" x2="786" y2="125.5" stroke="#e5e7eb" stroke-width="1"/>
<text x="83" y="129.50000000000003" font-family="Arial" text-anchor="end" font-size="12">2110</text>
<line x1="92" y1="44.0" x2="786" y2="44.0" stroke="#e5e7eb" stroke-width="1"/>
<text x="83" y="48.0" font-family="Arial" text-anchor="end" font-size="12">11045</text>
<text x="92.0" y="394" font-family="Arial" text-anchor="middle" font-size="12">0</text>
<text x="265.5" y="394" font-family="Arial" text-anchor="middle" font-size="12">12,544</text>
<text x="439.0" y="394" font-family="Arial" text-anchor="middle" font-size="12">25,088</text>
<text x="612.5" y="394" font-family="Arial" text-anchor="middle" font-size="12">37,632</text>
<text x="786.0" y="394" font-family="Arial" text-anchor="middle" font-size="12">50,176</text>
<line x1="92" y1="44" x2="92" y2="370" stroke="#111827"/>
<line x1="92" y1="370" x2="786" y2="370" stroke="#111827"/>
<text x="410.0" y="480" font-family="Arial" text-anchor="middle" font-size="14">Actual SB3 training timesteps</text>
<text x="20" y="250.0" font-family="Arial" text-anchor="middle" font-size="14" transform="rotate(-90 20 250.0)">Mean cost per period (log scale; lower is better)</text>
<line x1="92" y1="329.0" x2="786" y2="329.0" stroke="#059669" stroke-width="2" stroke-dasharray="7 5"/>
<text x="100" y="321.9954040488307" font-family="Arial" font-size="12" fill="#047857">TBS reference: 33.8</text>
<polygon points="233.6,84.1 375.3,50.9 509.8,52.2 651.4,104.4 786.0,196.7 786.0,363.1 651.4,210.9 509.8,163.1 375.3,79.0 233.6,363.1" fill="#2563eb" opacity="0.14"/>
<polyline fill="none" stroke="#2563eb" stroke-width="2.5" points="233.6,124.8 375.3,63.0 509.8,81.4 651.4,133.2 786.0,237.6"/>
<circle cx="233.6" cy="124.8" r="3.5" fill="#2563eb"/>
<circle cx="375.3" cy="63.0" r="3.5" fill="#2563eb"/>
<circle cx="509.8" cy="81.4" r="3.5" fill="#2563eb"/>
<circle cx="651.4" cy="133.2" r="3.5" fill="#2563eb"/>
<circle cx="786.0" cy="237.6" r="3.5" fill="#2563eb"/>
<line x1="102" y1="432" x2="126" y2="432" stroke="#2563eb" stroke-width="2.5"/>
<text x="133" y="437" font-family="Arial" font-size="13">PPO</text>
<polygon points="230.3,154.3 368.6,236.9 506.9,259.7 645.3,187.7 783.6,183.6 783.6,242.9 645.3,256.8 506.9,283.1 368.6,262.6 230.3,171.6" fill="#dc2626" opacity="0.14"/>
<polyline fill="none" stroke="#dc2626" stroke-width="2.5" points="230.3,162.2 368.6,248.1 506.9,270.0 645.3,211.0 783.6,204.9" stroke-dasharray="10 4 2 4"/>
<circle cx="230.3" cy="162.2" r="3.5" fill="#dc2626"/>
<circle cx="368.6" cy="248.1" r="3.5" fill="#dc2626"/>
<circle cx="506.9" cy="270.0" r="3.5" fill="#dc2626"/>
<circle cx="645.3" cy="211.0" r="3.5" fill="#dc2626"/>
<circle cx="783.6" cy="204.9" r="3.5" fill="#dc2626"/>
<line x1="214" y1="432" x2="238" y2="432" stroke="#dc2626" stroke-width="2.5" stroke-dasharray="10 4 2 4"/>
<text x="245" y="437" font-family="Arial" font-size="13">DQN</text>
<text x="328" y="437" font-family="Arial" font-size="12" fill="#4b5563">Shaded band: +/- 1 seed SD (lower edge clipped at plot floor)</text>
</svg>
